<svg xmlns="http://www.w3.org/2000/svg" width="300" height="300" viewBox="0 0 300 300"><g fill-rule="evenodd" clip-rule="evenodd" fill="#fff"><path d="M2.45 229.003c5.436-.792 10.879-1.506 16.301-2.375 16.65-2.687 33.403-4.8 49.247-11.169 11.313-4.552 19.209-12.73 25.776-22.584a11387.994 11387.994 0 0 1 22.906-34.223c10.967-16.325 26.567-25.104 45.819-27.526 15.099-1.901 30.268-3.343 45.409-5.026 21.517-2.386 36.078-13.981 44.469-33.692 5.273-12.367 7.613-25.384 8.319-38.711.155-2.923 1.195-4.135 4.016-4.089 9.967.145 19.919.272 29.886.378 3.174.032 3.337 2.149 2.927 4.372-1.442 7.857-2.503 15.834-4.645 23.5-4.813 17.286-11.981 33.53-24.125 47.091-17.135 19.121-38.687 26.507-64.112 24.924-17.432-1.092-35.04-2.244-52.309 1.767-8.284 1.923-15.279 6.557-20.442 13.385-8.829 11.67-17.495 23.461-26.062 35.336-10.957 15.17-25.507 24.443-43.96 27.667-19.004 3.322-38.182 2.877-57.345 2.855-.668 0-1.333-.367-2.004-.565-.025-.439-.049-.877-.071-1.315zM48.863 241.43c5.662-1.753 9.394-1.965 13.218 1.682 16.152 15.396 35.202 25.709 56.839 31.201 38.503 9.755 74.383 3.294 107.033-18.873 27.737-18.816 45.911-44.857 54.407-77.501 4.312-16.575 5.443-33.269 2.912-50.223-.184-1.254-.099-2.813.495-3.88 1.901-3.382 4.093-6.602 6.206-9.928 7.104 7.387 9.438 53.817-1.738 84.276-20.182 55.008-73.91 94.578-137.902 91.949-40.527-1.669-73.715-18.266-101.47-48.703z"/><path d="M248.856 55.687c-3.753-3.393-7.429-6.86-11.261-10.161-24.938-21.496-54.23-31.926-86.831-31.76-31.014.159-58.772 10.716-82.777 30.601-19.421 16.084-33.212 36.195-41.094 60.059-7.567 22.896-9.086 46.261-3.548 69.994 2.753 11.825 6.875 23.044 12.346 33.81.905 1.788 3.032 3.64-.361 5.032-2.75 1.124-5.535 1.386-6.938-1.88-2.496-5.811-5.054-11.628-7.012-17.622-8.705-26.656-9.539-53.701-2.167-80.682 9.118-33.385 28.045-60.119 56.669-79.787 24.783-17.029 52.47-25.133 82.29-24.578 33.661.625 63.667 12.009 89.482 33.94 4.305 3.658 2.424 8.097 2.565 12.31-.457.239-.917.483-1.363.724z"/></g></svg>
