<svg width="156" height="40" viewBox="0 0 156 40" fill="none" xmlns="http://www.w3.org/2000/svg">
<g clip-path="url(#clip0_2640_331)">
<rect x="0.5" y="0.5" width="155" height="39" rx="5.5" fill="white" stroke="#999A9A"/>
<path d="M41 15.8958V10.1042H41.91V15.1317H44.668V15.8958H41ZM46.009 10.9986C45.727 10.9986 45.481 10.7815 45.481 10.5036C45.481 10.2258 45.727 10 46.009 10C46.3 10 46.537 10.2258 46.537 10.5036C46.537 10.7815 46.3 10.9986 46.009 10.9986ZM45.608 15.8958V11.7019H46.427V15.8958H45.608ZM47.304 15.3488L47.695 14.7757C47.996 15.0883 48.578 15.3748 49.17 15.3748C49.789 15.3748 50.116 15.1317 50.116 14.7757C50.116 14.3589 49.616 14.22 49.051 14.0984C48.305 13.9334 47.431 13.7424 47.431 12.8394C47.431 12.1708 48.032 11.5977 49.106 11.5977C49.862 11.5977 50.408 11.8582 50.781 12.1968L50.417 12.7439C50.162 12.4486 49.67 12.2316 49.115 12.2316C48.56 12.2316 48.214 12.4399 48.214 12.7786C48.214 13.1433 48.687 13.2648 49.233 13.3864C49.998 13.5514 50.908 13.7511 50.908 14.7149C50.908 15.4356 50.289 16 49.133 16C48.396 16 47.75 15.7829 47.304 15.3488ZM53.114 16C52.422 16 52.067 15.6266 52.067 14.9667V12.3878H51.339V11.7019H52.067V10.5557H52.886V11.7019H53.778V12.3878H52.886V14.7931C52.886 15.0883 53.032 15.3054 53.314 15.3054C53.505 15.3054 53.678 15.2272 53.76 15.1404L53.969 15.7308C53.796 15.8871 53.541 16 53.114 16ZM54.372 13.7945C54.372 12.5789 55.292 11.5977 56.575 11.5977C57.895 11.5977 58.714 12.5789 58.714 13.864V14.055H55.237C55.301 14.767 55.847 15.3575 56.73 15.3575C57.194 15.3575 57.704 15.1838 58.031 14.8625L58.414 15.3748C57.977 15.7829 57.358 16 56.648 16C55.337 16 54.372 15.1143 54.372 13.7945ZM56.575 12.2402C55.692 12.2402 55.273 12.9175 55.228 13.4906H57.913C57.895 12.9349 57.503 12.2402 56.575 12.2402ZM62.667 15.8958V13.2127C62.667 12.5181 62.294 12.2923 61.729 12.2923C61.22 12.2923 60.755 12.5876 60.519 12.9001V15.8958H59.7V11.7019H60.519V12.2923C60.81 11.9537 61.393 11.5977 62.075 11.5977C63.004 11.5977 63.486 12.0666 63.486 12.9522V15.8958H62.667ZM68.998 16C67.633 16 66.777 15.0101 66.777 13.7945C66.777 12.5876 67.633 11.5977 68.998 11.5977C70.372 11.5977 71.219 12.5876 71.219 13.7945C71.219 15.0101 70.372 16 68.998 16ZM68.998 15.3054C69.881 15.3054 70.363 14.5933 70.363 13.7945C70.363 13.0043 69.881 12.2923 68.998 12.2923C68.124 12.2923 67.633 13.0043 67.633 13.7945C67.633 14.5933 68.124 15.3054 68.998 15.3054ZM75.181 15.8958V13.2127C75.181 12.5181 74.808 12.2923 74.243 12.2923C73.734 12.2923 73.269 12.5876 73.033 12.9001V15.8958H72.214V11.7019H73.033V12.2923C73.324 11.9537 73.907 11.5977 74.589 11.5977C75.518 11.5977 76 12.0666 76 12.9522V15.8958H75.181Z" fill="black"/>
<path fill-rule="evenodd" clip-rule="evenodd" d="M27.894 19.0815C23.865 16.6886 17.219 16.4686 13.372 17.636C12.754 17.8235 12.101 17.4748 11.914 16.8572C11.727 16.239 12.075 15.5863 12.693 15.3985C17.109 14.0583 24.449 14.3171 29.088 17.0706C29.643 17.4005 29.825 18.118 29.496 18.6727C29.167 19.2283 28.448 19.4114 27.894 19.0815ZM27.762 22.6257C27.48 23.0844 26.88 23.2283 26.422 22.9466C23.062 20.8818 17.94 20.2836 13.966 21.4899C13.45 21.6456 12.906 21.3551 12.75 20.8406C12.594 20.3254 12.885 19.782 13.4 19.6253C17.939 18.2476 23.583 18.9148 27.442 21.2859C27.9 21.568 28.044 22.1681 27.762 22.6257ZM26.233 26.0294C26.008 26.3978 25.528 26.5132 25.161 26.2887C22.226 24.4947 18.531 24.0896 14.18 25.0834C13.761 25.1795 13.343 24.9168 13.247 24.4975C13.151 24.0784 13.413 23.6604 13.833 23.5647C18.595 22.4763 22.679 22.9447 25.974 24.958C26.342 25.1823 26.457 25.6622 26.233 26.0294ZM20.5 8C13.597 8 8 13.5964 8 20.4998C8 27.404 13.597 33 20.5 33C27.404 33 33 27.404 33 20.4998C33 13.5964 27.404 8 20.5 8Z" fill="#1ED760"/>
<path d="M45.1884 32.1992C47.9774 32.1992 49.7534 30.7798 49.7534 28.522C49.7534 26.7788 48.7245 25.7744 46.2175 25.2432L44.9065 24.9692C43.3545 24.6372 42.7395 24.0562 42.7395 23.1846C42.7395 22.0889 43.7694 21.4082 45.1714 21.4082C46.6244 21.4082 47.6125 22.147 47.7285 23.3506H49.5294C49.4714 21.2588 47.7365 19.8228 45.1965 19.8228C42.6485 19.8228 40.8474 21.2339 40.8474 23.2842C40.8474 25.0107 41.9345 26.123 44.3335 26.6294L45.6364 26.9033C47.2384 27.252 47.8694 27.833 47.8694 28.7627C47.8694 29.8335 46.7825 30.6138 45.2635 30.6138C43.6695 30.6138 42.5405 29.8999 42.3745 28.7129H40.5645C40.6815 30.8462 42.4824 32.1992 45.1884 32.1992ZM52.9995 34.8887V30.564H53.0414C53.5394 31.5352 54.5355 32.1494 55.7885 32.1494C57.9795 32.1494 59.4325 30.3979 59.4325 27.6338C59.4325 24.8696 57.9715 23.1265 55.7555 23.1265C54.4935 23.1265 53.4895 23.7656 52.9745 24.77H52.9415V23.2676H51.2065V34.8887H52.9995ZM55.2825 30.6304C53.9045 30.6304 52.9915 29.4517 52.9915 27.6338C52.9915 25.8325 53.9125 24.6372 55.2825 24.6372C56.7015 24.6372 57.5894 25.8076 57.5894 27.6338C57.5894 29.4683 56.7015 30.6304 55.2825 30.6304ZM64.5625 32.166C67.0615 32.166 68.7045 30.4478 68.7045 27.6338C68.7045 24.8281 67.0525 23.1099 64.5625 23.1099C62.0725 23.1099 60.4205 24.8281 60.4205 27.6338C60.4205 30.4478 62.0635 32.166 64.5625 32.166ZM64.5625 30.6885C63.1595 30.6885 62.2465 29.5762 62.2465 27.6338C62.2465 25.6997 63.1595 24.5874 64.5625 24.5874C65.9655 24.5874 66.8784 25.6997 66.8784 27.6338C66.8784 29.5762 65.9735 30.6885 64.5625 30.6885ZM73.0705 32.0581C73.4695 32.0581 73.8675 32.0249 74.0665 31.9751V30.5557C73.9505 30.5806 73.6604 30.5972 73.4774 30.5972C72.7474 30.5972 72.4155 30.2568 72.4155 29.5015V24.687H74.0755V23.2676H72.4155V21.2007H70.6135V23.2676H69.3434V24.687H70.6135V29.7007C70.6135 31.3857 71.3025 32.0581 73.0705 32.0581ZM76.4995 21.8564C77.0715 21.8564 77.5285 21.3916 77.5285 20.8271C77.5285 20.2544 77.0715 19.7979 76.4995 19.7979C75.9265 19.7979 75.4615 20.2544 75.4615 20.8271C75.4615 21.3916 75.9265 21.8564 76.4995 21.8564ZM77.3954 32V23.2676H75.6024V32H77.3954ZM81.5544 32V24.687H83.2975V23.2842H81.5294V22.4624C81.5294 21.6904 81.8945 21.3003 82.6745 21.3003C82.9155 21.3003 83.1564 21.3169 83.3304 21.3501V20.022C83.0984 19.9805 82.6914 19.939 82.3264 19.939C80.5494 19.939 79.7525 20.7358 79.7525 22.4292V23.2842H78.5495V24.687H79.7525V32H81.5544ZM85.5804 35.2539C87.3894 35.2539 88.2525 34.5732 89.0005 32.4565L92.2704 23.2676H90.3775L88.1695 30.373H88.1364L85.9285 23.2676H83.9865L87.1405 32.0083C87.1405 32.0166 86.9825 32.5312 86.9825 32.5479C86.7085 33.4443 86.2605 33.793 85.4305 33.793C85.2815 33.793 84.9825 33.793 84.8495 33.7598V35.2124C84.9825 35.2373 85.4304 35.2539 85.5804 35.2539Z" fill="black"/>
</g>
<defs>
<clipPath id="clip0_2640_331">
<rect width="156" height="40" fill="white"/>
</clipPath>
</defs>
</svg>
