<svg width="156" height="40" viewBox="0 0 156 40" fill="none" xmlns="http://www.w3.org/2000/svg">
<rect x="0.5" y="0.5" width="155" height="39" rx="7.5" fill="white"/>
<rect x="0.5" y="0.5" width="155" height="39" rx="7.5" stroke="#999A9A"/>
<path fill-rule="evenodd" clip-rule="evenodd" d="M31.717 28.3733C31.482 28.9707 30.939 29.8118 30.169 30.4043C29.725 30.7466 29.194 31.0737 28.466 31.2895C27.689 31.5197 26.732 31.5975 25.542 31.5975H14.654C13.463 31.5975 12.506 31.5197 11.73 31.2895C11.001 31.0737 10.471 30.7466 10.026 30.4043C9.257 29.8117 8.714 28.9707 8.479 28.3733C8.005 27.1696 8 25.804 8 24.9439V14.056C8 13.1959 8.005 11.8302 8.479 10.6266C8.714 10.0292 9.257 9.18801 10.026 8.59551C10.47 8.2533 11.001 7.92619 11.73 7.71032C12.506 7.48013 13.463 7.40234 14.654 7.40234H25.542C26.732 7.40234 27.689 7.48013 28.466 7.71032C29.195 7.92619 29.725 8.2534 30.169 8.59551C30.939 9.18811 31.482 10.0292 31.717 10.6266C32.191 11.8302 32.195 13.1959 32.195 14.056V24.9439C32.195 25.8039 32.191 27.1695 31.717 28.3733Z" fill="url(#paint0_linear_2640_330)"/>
<path d="M21.8515 21.3094C21.4885 20.9263 20.8515 20.6807 20.0985 20.6807C19.3455 20.6807 18.7075 20.9263 18.3445 21.3094C18.1555 21.5093 18.0555 21.7142 18.0235 22.0061C17.9625 22.5714 17.9965 23.0581 18.0625 23.8363C18.1255 24.5778 18.2455 25.5667 18.4025 26.5738C18.5135 27.2905 18.6035 27.6773 18.6865 27.9544C18.8195 28.4033 19.3185 28.7959 20.0985 28.7959C20.8785 28.7959 21.3765 28.4032 21.5105 27.9544C21.5925 27.6773 21.6835 27.2905 21.7945 26.5738C21.9505 25.5667 22.0705 24.5778 22.1335 23.8363C22.1995 23.058 22.2345 22.5713 22.1735 22.0061C22.1415 21.7143 22.0415 21.5093 21.8515 21.3094ZM18.1205 17.8985C18.1205 18.9921 19.0065 19.8786 20.1005 19.8786C21.1935 19.8786 22.0805 18.9921 22.0805 17.8985C22.0805 16.8048 21.1935 15.9183 20.1005 15.9183C19.0065 15.9183 18.1205 16.8048 18.1205 17.8985ZM20.0755 10.084C15.4445 10.0972 11.6495 13.8542 11.5925 18.485C11.5455 22.2363 13.9405 25.4451 17.2845 26.6213C17.3655 26.6498 17.4475 26.5824 17.4355 26.4973C17.3915 26.2061 17.3495 25.9134 17.3115 25.6256C17.2985 25.5239 17.2335 25.4362 17.1395 25.3951C14.4965 24.2405 12.6515 21.5899 12.6805 18.5196C12.7195 14.4904 16.0105 11.2056 20.0395 11.173C24.1585 11.1397 27.5205 14.4809 27.5205 18.5924C27.5205 21.632 25.6825 24.25 23.0605 25.3954C22.9665 25.4365 22.9015 25.5245 22.8885 25.6261C22.8505 25.9138 22.8095 26.2064 22.7655 26.4973C22.7525 26.5824 22.8355 26.6498 22.9165 26.6214C26.2285 25.4565 28.6085 22.2975 28.6085 18.5925C28.6085 13.8926 24.7785 10.0706 20.0755 10.084ZM19.9215 13.9874C22.5475 13.8858 24.7155 15.9919 24.7155 18.595C24.7155 19.9189 24.1545 21.1141 23.2575 21.9558C23.1815 22.0271 23.1405 22.1285 23.1465 22.2326C23.1645 22.5493 23.1585 22.857 23.1375 23.2045C23.1315 23.2971 23.2355 23.3562 23.3115 23.304C24.8155 22.2767 25.8035 20.5493 25.8035 18.595C25.8035 15.3773 23.1235 12.7738 19.8785 12.8995C16.8625 13.0165 14.4435 15.5029 14.4045 18.5208C14.3795 20.5056 15.3745 22.264 16.8965 23.3042C16.9735 23.3564 17.0765 23.2971 17.0715 23.2046C17.0495 22.857 17.0435 22.5493 17.0615 22.2326C17.0675 22.1286 17.0265 22.0272 16.9505 21.956C16.0265 21.0881 15.4585 19.8444 15.4945 18.4713C15.5585 16.0549 17.5065 14.081 19.9215 13.9874Z" fill="white"/>
<path d="M41.5029 14.8958V9.1042H42.4129V14.1317H45.1709V14.8958H41.5029ZM46.5119 9.99855C46.2299 9.99855 45.9839 9.78148 45.9839 9.50362C45.9839 9.22576 46.2299 9 46.5119 9C46.8029 9 47.0399 9.22576 47.0399 9.50362C47.0399 9.78148 46.8029 9.99855 46.5119 9.99855ZM46.1109 14.8958V10.7019H46.9299V14.8958H46.1109ZM47.8069 14.3488L48.1979 13.7757C48.4989 14.0883 49.0809 14.3748 49.6729 14.3748C50.2919 14.3748 50.6189 14.1317 50.6189 13.7757C50.6189 13.3589 50.1189 13.22 49.5539 13.0984C48.8079 12.9334 47.9339 12.7424 47.9339 11.8394C47.9339 11.1708 48.5349 10.5977 49.6089 10.5977C50.3649 10.5977 50.9109 10.8582 51.2839 11.1968L50.9199 11.7439C50.6649 11.4486 50.1729 11.2316 49.6179 11.2316C49.0629 11.2316 48.7169 11.4399 48.7169 11.7786C48.7169 12.1433 49.1899 12.2648 49.7359 12.3864C50.5009 12.5514 51.4109 12.7511 51.4109 13.7149C51.4109 14.4356 50.7919 15 49.6359 15C48.8989 15 48.2529 14.7829 47.8069 14.3488ZM53.6169 15C52.9249 15 52.5699 14.6266 52.5699 13.9667V11.3878H51.8419V10.7019H52.5699V9.55572H53.3889V10.7019H54.2809V11.3878H53.3889V13.793C53.3889 14.0883 53.5349 14.3053 53.8169 14.3053C54.0079 14.3053 54.1809 14.2272 54.2629 14.1404L54.4719 14.7308C54.2989 14.8871 54.0439 15 53.6169 15ZM54.8749 12.7945C54.8749 11.5789 55.7949 10.5977 57.0779 10.5977C58.3979 10.5977 59.2169 11.5789 59.2169 12.864V13.055H55.7399C55.8039 13.767 56.3499 14.3575 57.2329 14.3575C57.6969 14.3575 58.2069 14.1838 58.5339 13.8625L58.9169 14.3748C58.4799 14.7829 57.8609 15 57.1509 15C55.8399 15 54.8749 14.1143 54.8749 12.7945ZM57.0779 11.2402C56.1949 11.2402 55.7759 11.9175 55.7309 12.4906H58.4159C58.3979 11.9349 58.0059 11.2402 57.0779 11.2402ZM63.1699 14.8958V12.2127C63.1699 11.5181 62.7969 11.2923 62.2319 11.2923C61.7229 11.2923 61.2579 11.5875 61.0219 11.9001V14.8958H60.2029V10.7019H61.0219V11.2923C61.3129 10.9537 61.8959 10.5977 62.5779 10.5977C63.5069 10.5977 63.9889 11.0666 63.9889 11.9522V14.8958H63.1699ZM69.5009 15C68.1359 15 67.2799 14.0101 67.2799 12.7945C67.2799 11.5875 68.1359 10.5977 69.5009 10.5977C70.8749 10.5977 71.7219 11.5875 71.7219 12.7945C71.7219 14.0101 70.8749 15 69.5009 15ZM69.5009 14.3053C70.3839 14.3053 70.8659 13.5933 70.8659 12.7945C70.8659 12.0043 70.3839 11.2923 69.5009 11.2923C68.6269 11.2923 68.1359 12.0043 68.1359 12.7945C68.1359 13.5933 68.6269 14.3053 69.5009 14.3053ZM75.6839 14.8958V12.2127C75.6839 11.5181 75.3109 11.2923 74.7459 11.2923C74.2369 11.2923 73.7719 11.5875 73.5359 11.9001V14.8958H72.7169V10.7019H73.5359V11.2923C73.8269 10.9537 74.4099 10.5977 75.0919 10.5977C76.0209 10.5977 76.5029 11.0666 76.5029 11.9522V14.8958H75.6839Z" fill="black"/>
<path d="M43.5261 31L44.558 27.9531H48.855L49.886 31H51.7371L47.6671 19.7266H45.7761L41.7061 31H43.5261ZM48.4091 26.5469H45.0031L46.683 21.6016H46.73L48.4091 26.5469ZM54.4641 33.7188V29.6484H54.5031C54.9721 30.5625 55.909 31.1406 57.0891 31.1406C59.1511 31.1406 60.519 29.4922 60.519 26.8906C60.519 24.2891 59.144 22.6484 57.058 22.6484C55.87 22.6484 54.925 23.25 54.441 24.1953H54.4091V22.7812H52.7761V33.7188H54.4641ZM56.6121 29.7109C55.3151 29.7109 54.4561 28.6016 54.4561 26.8906C54.4561 25.1953 55.3231 24.0703 56.6121 24.0703C57.9481 24.0703 58.7841 25.1719 58.7841 26.8906C58.7841 28.6172 57.9481 29.7109 56.6121 29.7109ZM63.5031 33.7188V29.6484H63.5421C64.0111 30.5625 64.9481 31.1406 66.1281 31.1406C68.1911 31.1406 69.558 29.4922 69.558 26.8906C69.558 24.2891 68.183 22.6484 66.097 22.6484C64.909 22.6484 63.964 23.25 63.48 24.1953H63.4481V22.7812H61.8151V33.7188H63.5031ZM65.6511 29.7109C64.3551 29.7109 63.4951 28.6016 63.4951 26.8906C63.4951 25.1953 64.3621 24.0703 65.6511 24.0703C66.9871 24.0703 67.8231 25.1719 67.8231 26.8906C67.8231 28.6172 66.9871 29.7109 65.6511 29.7109ZM72.605 31V19.7266H70.9171V31H72.605ZM77.847 31.1562C79.73 31.1562 81.151 30.0859 81.386 28.5859H79.7841C79.5581 29.3047 78.847 29.7891 77.886 29.7891C76.534 29.7891 75.675 28.8438 75.675 27.4141V27.3125H81.48V26.7344C81.48 24.2422 80.0581 22.6328 77.7761 22.6328C75.4561 22.6328 73.972 24.3516 73.972 26.9297C73.972 29.5234 75.433 31.1562 77.847 31.1562ZM79.7921 26.1328H75.683C75.769 24.8906 76.5971 23.9922 77.7761 23.9922C78.9561 23.9922 79.7531 24.875 79.7921 26.1328ZM87.98 31V27.1484H90.4011C92.6121 27.1484 94.1671 25.6328 94.1671 23.4297C94.1671 21.2344 92.6441 19.7266 90.4561 19.7266H86.23V31H87.98ZM89.9871 25.6797H87.98V21.2031H89.9951C91.5111 21.2031 92.3781 22.0156 92.3781 23.4375C92.3781 24.8594 91.5111 25.6797 89.9871 25.6797ZM99.0261 31.1562C101.378 31.1562 102.925 29.5391 102.925 26.8906C102.925 24.25 101.37 22.6328 99.0261 22.6328C96.6831 22.6328 95.1281 24.25 95.1281 26.8906C95.1281 29.5391 96.6751 31.1562 99.0261 31.1562ZM99.0261 29.7656C97.7061 29.7656 96.847 28.7188 96.847 26.8906C96.847 25.0703 97.7061 24.0234 99.0261 24.0234C100.347 24.0234 101.206 25.0703 101.206 26.8906C101.206 28.7188 100.355 29.7656 99.0261 29.7656ZM107.315 31.1406C108.511 31.1406 109.448 30.5391 109.933 29.6016H109.964V31H111.605V19.7266H109.909V24.1484H109.878C109.417 23.2422 108.48 22.6484 107.3 22.6484C105.237 22.6484 103.862 24.2969 103.862 26.8906C103.862 29.4844 105.237 31.1406 107.315 31.1406ZM107.761 29.7109C106.425 29.7109 105.589 28.625 105.589 26.8906C105.589 25.1641 106.425 24.0703 107.761 24.0703C109.058 24.0703 109.925 25.1875 109.925 26.8906C109.925 28.6094 109.058 29.7109 107.761 29.7109ZM116.847 31.1562C118.823 31.1562 120.222 29.9688 120.401 28.2188H118.776C118.581 29.1719 117.901 29.7422 116.862 29.7422C115.55 29.7422 114.683 28.6953 114.683 26.8906C114.683 25.125 115.542 24.0391 116.847 24.0391C117.948 24.0391 118.605 24.7344 118.776 25.6094H120.386C120.237 23.9922 118.948 22.6328 116.831 22.6328C114.495 22.6328 112.964 24.2812 112.964 26.8906C112.964 29.5469 114.495 31.1562 116.847 31.1562ZM124.003 31.1406C125.081 31.1406 126.12 30.5625 126.597 29.6484H126.636V31H128.253V25.3359C128.253 23.6875 126.98 22.6328 124.987 22.6328C122.956 22.6328 121.691 23.7266 121.597 25.2109H123.191C123.339 24.4766 123.948 24.0078 124.925 24.0078C125.956 24.0078 126.573 24.5547 126.573 25.4688V26.1016L124.323 26.2344C122.37 26.3438 121.269 27.2266 121.269 28.6641C121.269 30.1406 122.394 31.1406 124.003 31.1406ZM124.472 29.8047C123.565 29.8047 122.972 29.3359 122.972 28.6172C122.972 27.9141 123.542 27.4688 124.55 27.3984L126.573 27.2734V27.9219C126.573 28.9922 125.651 29.8047 124.472 29.8047ZM132.972 31.1562C134.909 31.1562 136.308 30.125 136.308 28.625C136.308 27.4375 135.667 26.7812 133.987 26.3906L132.651 26.0859C131.761 25.8828 131.386 25.5312 131.386 25.0156C131.386 24.3594 131.995 23.9141 132.909 23.9141C133.855 23.9141 134.441 24.4141 134.534 25.2109H136.12C136.065 23.6953 134.823 22.6328 132.909 22.6328C131.019 22.6328 129.737 23.6406 129.737 25.1094C129.737 26.3047 130.511 27.0547 132.073 27.4141L133.409 27.7266C134.308 27.9297 134.612 28.2422 134.612 28.7734C134.612 29.4453 133.987 29.8672 132.972 29.8672C131.941 29.8672 131.355 29.4453 131.198 28.5859H129.526C129.683 30.1484 130.917 31.1562 132.972 31.1562ZM140.417 31.0547C140.792 31.0547 141.167 31.0234 141.355 30.9766V29.6406C141.245 29.6641 140.972 29.6797 140.8 29.6797C140.112 29.6797 139.8 29.3594 139.8 28.6484V24.1172H141.362V22.7812H139.8V20.8359H138.105V22.7812H136.909V24.1172H138.105V28.8359C138.105 30.4219 138.753 31.0547 140.417 31.0547ZM145.831 31.1562C147.769 31.1562 149.167 30.125 149.167 28.625C149.167 27.4375 148.526 26.7812 146.847 26.3906L145.511 26.0859C144.62 25.8828 144.245 25.5312 144.245 25.0156C144.245 24.3594 144.855 23.9141 145.769 23.9141C146.714 23.9141 147.3 24.4141 147.394 25.2109H148.98C148.925 23.6953 147.683 22.6328 145.769 22.6328C143.878 22.6328 142.597 23.6406 142.597 25.1094C142.597 26.3047 143.37 27.0547 144.933 27.4141L146.269 27.7266C147.167 27.9297 147.472 28.2422 147.472 28.7734C147.472 29.4453 146.847 29.8672 145.831 29.8672C144.8 29.8672 144.214 29.4453 144.058 28.5859H142.386C142.542 30.1484 143.776 31.1562 145.831 31.1562Z" fill="black"/>
<defs>
<linearGradient id="paint0_linear_2640_330" x1="1217.77" y1="7.40234" x2="1217.77" y2="2426.92" gradientUnits="userSpaceOnUse">
<stop stop-color="#F452FF"/>
<stop offset="1" stop-color="#832BC1"/>
</linearGradient>
</defs>
</svg>
