<svg xmlns="http://www.w3.org/2000/svg" width="132.791" height="34.013" viewBox="0 0 132.791 34.013"><path fill="#777878" d="M132.78 9.079c0-.33 0-.66-.004-.99-.023-.72-.066-1.441-.197-2.152a7.173 7.173 0 0 0-.667-2.047A6.937 6.937 0 0 0 126.85.206c-.705-.128-1.429-.171-2.148-.189-.329-.005-.664-.011-.992-.014C123.323 0 122.933 0 122.546 0H10.25c-.393 0-.783 0-1.176.002-.329.003-.656.009-.988.014-.716.019-1.44.062-2.154.19a7.191 7.191 0 0 0-2.044.675 6.889 6.889 0 0 0-1.74 1.267A6.686 6.686 0 0 0 .881 3.89a7.091 7.091 0 0 0-.672 2.047c-.13.711-.174 1.432-.193 2.152-.01.33-.011.66-.016.99v15.859c.005.333.006.658.016.99.018.721.063 1.441.193 2.152.125.722.338 1.396.672 2.047a6.659 6.659 0 0 0 1.266 1.736 6.677 6.677 0 0 0 1.741 1.266 7.14 7.14 0 0 0 2.044.68c.714.129 1.438.171 2.154.191.332.006.659.011.988.011.394.002.783.002 1.177.002h112.295c.387 0 .777 0 1.165-.002.328 0 .662-.005.991-.011.721-.021 1.443-.062 2.15-.191a7.225 7.225 0 0 0 2.051-.68 6.646 6.646 0 0 0 1.738-1.266 6.883 6.883 0 0 0 1.271-1.736 7.205 7.205 0 0 0 .667-2.047c.131-.711.174-1.432.198-2.152.004-.332.004-.657.004-.99.01-.391.01-.779.01-1.177V10.253c0-.393 0-.784-.011-1.174z"/><path fill="#FFF" d="M132.125 23.761c0 .392 0 .774-.009 1.177 0 .328 0 .652-.006.971-.018.62-.057 1.35-.186 2.059a6.514 6.514 0 0 1-.604 1.855 6.322 6.322 0 0 1-2.722 2.719 6.596 6.596 0 0 1-1.865.615c-.709.125-1.434.161-2.045.18-.328.006-.656.012-.982.012-.387.002-.777.002-1.161.002H10.25c-.392 0-.781 0-1.177-.002-.325 0-.646-.004-.968-.012-.617-.018-1.343-.053-2.058-.18a6.56 6.56 0 0 1-1.858-.615 6.168 6.168 0 0 1-1.575-1.148 6.162 6.162 0 0 1-1.142-1.566 6.613 6.613 0 0 1-.611-1.865C.727 27.227.694 26.482.68 25.91a26.077 26.077 0 0 1-.013-.686l-.004-.285V9.088l.006-.298c.002-.226.005-.454.013-.685.014-.567.047-1.312.182-2.053.12-.685.319-1.292.611-1.862a6.059 6.059 0 0 1 1.144-1.572 6.24 6.24 0 0 1 1.572-1.145A6.578 6.578 0 0 1 6.047.859C6.776.73 7.528.697 8.097.679l.977-.014c.395-.003.784-.003 1.175-.003h112.295c.385 0 .775 0 1.158.003l.055.002.924.012c.576.017 1.328.051 2.051.18a6.616 6.616 0 0 1 1.865.614 6.125 6.125 0 0 1 1.571 1.145c.462.461.847.989 1.147 1.571.293.579.492 1.189.605 1.869.131.701.17 1.432.188 2.045.004.325.004.651.004.989.01.387.01.771.01 1.16v13.509h.003z"/><g fill="#777878"><path d="M36.808 11.183h-2.566l-.647 1.847h-.845l2.378-6.451h.796l2.378 6.451h-.845l-.649-1.847zm-2.33-.684h2.093l-1.033-2.942h-.027l-1.033 2.942zM39.185 8.379h.733v.76h.018c.291-.532.755-.805 1.475-.805 1.021 0 1.61.657 1.61 1.712v2.982h-.778v-2.843c0-.751-.349-1.163-1.073-1.163-.751 0-1.207.523-1.207 1.31v2.696h-.778V8.379zM44.318 6.578h.778V9.14h.018c.286-.532.765-.805 1.476-.805 1.02 0 1.637.688 1.637 1.726v2.969h-.778v-2.826c0-.738-.371-1.18-1.1-1.18-.773 0-1.252.527-1.252 1.333v2.673h-.778V6.578zM49.254 10.705c0-1.449.84-2.37 2.155-2.37 1.311 0 2.15.921 2.15 2.37 0 1.444-.84 2.37-2.15 2.37-1.314-.001-2.155-.927-2.155-2.37zm.774-3.814a.5.5 0 1 1 .5.501.506.506 0 0 1-.5-.501zm2.74 3.814c0-1.06-.505-1.686-1.359-1.686-.857 0-1.364.63-1.364 1.686 0 1.06.51 1.686 1.364 1.686.854 0 1.359-.627 1.359-1.686zm-.979-3.814a.5.5 0 1 1 .501.501.506.506 0 0 1-.501-.501zM54.61 8.379h.733v.76h.018c.139-.492.581-.805 1.126-.805.134 0 .246.013.313.027v.76a1.593 1.593 0 0 0-.416-.044c-.604 0-.997.434-.997 1.091v2.861h-.777v-4.65zM61.329 11.697c-.129.805-.939 1.377-1.936 1.377-1.314 0-2.142-.908-2.142-2.352s.832-2.387 2.105-2.387c1.248 0 2.03.876 2.03 2.285v.295h-3.335v.045c0 .872.541 1.439 1.358 1.439.572 0 1.024-.273 1.153-.702h.767zm-3.273-1.39h2.526c-.018-.778-.514-1.296-1.238-1.296-.72-.001-1.239.522-1.288 1.296zM62.438 8.379h.733v.76h.018c.291-.532.755-.805 1.475-.805 1.02 0 1.61.657 1.61 1.712v2.982h-.778v-2.843c0-.751-.349-1.163-1.073-1.163-.751 0-1.207.523-1.207 1.31v2.696h-.778V8.379zM69.47 11.706c0-.8.613-1.274 1.748-1.341l1.293-.076v-.385c0-.572-.377-.885-1.052-.885-.532 0-.931.272-1.021.707h-.742c.023-.792.787-1.391 1.775-1.391 1.104 0 1.815.585 1.815 1.502v3.192h-.736v-.8h-.02c-.264.514-.844.867-1.492.867-.941 0-1.568-.567-1.568-1.39zm3.041-.443v-.371l-1.203.076c-.689.04-1.045.295-1.045.738 0 .425.371.724.951.724.746 0 1.297-.505 1.297-1.167zM78.362 13.029h-.737v-.773h-.019c-.285.541-.76.818-1.475.818-1.016 0-1.609-.657-1.609-1.712V8.379h.778v2.844c0 .755.354 1.162 1.073 1.162.755 0 1.211-.519 1.211-1.31V8.379h.778v4.65zM79.888 9.019h-.648v-.64h.648v-.428c0-.863.377-1.243 1.252-1.243.152 0 .282.014.43.036v.635a2.156 2.156 0 0 0-.354-.032c-.385 0-.55.179-.555.608v.424h.908v.64h-.903v4.01h-.778v-4.01z"/></g><path d="M38.607 24.395h-3.651l-.876 2.589h-1.547l3.458-9.578h1.606l3.458 9.578h-1.573l-.875-2.589zm-3.272-1.193h2.894l-1.427-4.203h-.04l-1.427 4.203zM48.698 23.493c0 2.17-1.162 3.564-2.914 3.564-.996 0-1.785-.445-2.197-1.223h-.033v3.459H42.12V20h1.387v1.162h.025c.398-.75 1.248-1.234 2.225-1.234 1.772.001 2.941 1.401 2.941 3.565zm-1.474 0c0-1.414-.73-2.343-1.845-2.343-1.095 0-1.832.949-1.832 2.343 0 1.407.737 2.35 1.832 2.35 1.115-.001 1.845-.923 1.845-2.35zM56.437 23.493c0 2.17-1.162 3.564-2.914 3.564-.996 0-1.785-.445-2.197-1.223h-.033v3.459h-1.434V20h1.387v1.162h.026c.398-.75 1.248-1.234 2.224-1.234 1.772.001 2.941 1.401 2.941 3.565zm-1.474 0c0-1.414-.73-2.343-1.845-2.343-1.095 0-1.832.949-1.832 2.343 0 1.407.737 2.35 1.832 2.35 1.115-.001 1.845-.923 1.845-2.35zM57.651 17.406h1.434v9.578h-1.434v-9.578zM66.841 24.934c-.192 1.268-1.427 2.137-3.007 2.137-2.031 0-3.292-1.361-3.292-3.544 0-2.19 1.268-3.61 3.232-3.61 1.932 0 3.146 1.326 3.146 3.444v.491h-4.932v.086c0 1.195.75 1.979 1.878 1.979.796 0 1.42-.379 1.613-.982h1.362zm-4.845-2.085h3.491c-.033-1.069-.717-1.772-1.712-1.772-.989 0-1.706.716-1.779 1.772zM75.093 17.406c1.857 0 3.153 1.281 3.153 3.146 0 1.873-1.321 3.16-3.198 3.16h-2.059v3.271h-1.487v-9.578l3.591.001zm-2.104 5.057h1.705c1.295 0 2.031-.696 2.031-1.904s-.736-1.898-2.023-1.898h-1.713v3.802zM78.918 23.493c0-2.197 1.294-3.578 3.312-3.578 2.024 0 3.312 1.381 3.312 3.578 0 2.204-1.281 3.578-3.312 3.578s-3.312-1.374-3.312-3.578zm5.164 0c0-1.507-.69-2.396-1.853-2.396s-1.852.896-1.852 2.396c0 1.514.689 2.396 1.852 2.396s1.853-.883 1.853-2.396zM86.534 23.493c0-2.156 1.189-3.563 2.921-3.563 1.002 0 1.792.464 2.19 1.233h.025v-3.757h1.439v9.578h-1.393v-1.188h-.026c-.412.797-1.207 1.262-2.223 1.262-1.743 0-2.933-1.408-2.933-3.565zm1.468 0c0 1.434.729 2.35 1.845 2.35 1.102 0 1.838-.928 1.838-2.35 0-1.406-.736-2.343-1.838-2.343-1.116 0-1.845.923-1.845 2.343zM99.333 22.404c-.126-.737-.704-1.288-1.646-1.288-1.102 0-1.832.924-1.832 2.377 0 1.486.738 2.383 1.846 2.383.891 0 1.475-.445 1.633-1.254h1.381c-.16 1.467-1.334 2.448-3.027 2.448-1.99 0-3.291-1.36-3.291-3.577 0-2.171 1.301-3.578 3.279-3.578 1.791 0 2.906 1.127 3.025 2.488l-1.368.001zM101.621 24.986c0-1.221.937-1.938 2.675-2.044l1.857-.105v-.531c0-.79-.523-1.215-1.434-1.215-.75 0-1.301.386-1.414.982h-1.34c.039-1.248 1.207-2.156 2.795-2.156 1.711 0 2.819.896 2.819 2.283v4.785h-1.373v-1.148h-.032c-.393.75-1.263 1.248-2.205 1.248-1.386-.001-2.348-.858-2.348-2.099zm4.532-.616v-.539l-1.672.106c-.93.054-1.42.412-1.42 1.017 0 .584.51.996 1.307.996 1.018 0 1.785-.678 1.785-1.58zM111.772 19.922c1.547 0 2.654.855 2.688 2.091h-1.347c-.061-.617-.584-.996-1.381-.996-.776 0-1.295.358-1.295.903 0 .418.346.697 1.068.875l1.176.272c1.406.338 1.938.856 1.938 1.878 0 1.262-1.195 2.124-2.9 2.124-1.646 0-2.754-.843-2.861-2.118h1.42c.101.67.639 1.029 1.508 1.029.855 0 1.395-.352 1.395-.909 0-.432-.266-.663-.996-.85l-1.248-.306c-1.26-.306-1.897-.949-1.897-1.918-.002-1.232 1.106-2.075 2.732-2.075zM117.791 18.349V20h1.327v1.136h-1.327v3.85c0 .599.267.876.851.876.146 0 .377-.02.471-.033v1.129c-.159.039-.479.065-.797.065-1.414 0-1.965-.53-1.965-1.885v-4.002h-1.016V20h1.016v-1.651h1.44zM122.966 19.922c1.545 0 2.652.855 2.688 2.091h-1.348c-.061-.617-.584-.996-1.381-.996-.775 0-1.293.358-1.293.903 0 .418.344.697 1.066.875l1.176.272c1.406.338 1.938.856 1.938 1.878 0 1.262-1.195 2.124-2.9 2.124-1.646 0-2.754-.843-2.859-2.118h1.42c.1.67.637 1.029 1.506 1.029.856 0 1.396-.352 1.396-.909 0-.432-.267-.663-.996-.85l-1.248-.306c-1.261-.306-1.897-.949-1.897-1.918-.005-1.232 1.104-2.075 2.732-2.075z"/><g><linearGradient id="a" gradientUnits="userSpaceOnUse" x1="-3148.95" y1="4096.637" x2="-3148.95" y2="4074.245" gradientTransform="matrix(1 0 0 -1 3166.44 4102.448)"><stop offset="0" stop-color="#f452ff"/><stop offset="1" stop-color="#832bc1"/></linearGradient><path fill="url(#a)" d="M28.244 25.22a4.742 4.742 0 0 1-3.009 2.698c-.719.213-1.604.285-2.706.285H12.452c-1.102 0-1.986-.072-2.706-.285a4.702 4.702 0 0 1-1.577-.818c-.712-.549-1.215-1.327-1.432-1.88-.438-1.114-.443-2.378-.443-3.175V11.969c0-.796.004-2.06.443-3.174a4.742 4.742 0 0 1 3.009-2.699c.719-.213 1.604-.285 2.706-.285h10.077c1.103 0 1.987.072 2.706.285a4.726 4.726 0 0 1 3.009 2.699c.438 1.114.443 2.378.443 3.174v10.076c0 .797-.004 2.061-.443 3.175z"/><path fill="none" d="M28.244 25.22a4.742 4.742 0 0 1-3.009 2.698c-.719.213-1.604.285-2.706.285H12.452c-1.102 0-1.986-.072-2.706-.285a4.702 4.702 0 0 1-1.577-.818c-.712-.549-1.215-1.327-1.432-1.88-.438-1.114-.443-2.378-.443-3.175V11.969c0-.796.004-2.06.443-3.174a4.742 4.742 0 0 1 3.009-2.699c.719-.213 1.604-.285 2.706-.285h10.077c1.103 0 1.987.072 2.706.285a4.726 4.726 0 0 1 3.009 2.699c.438 1.114.443 2.378.443 3.174v10.076c0 .797-.004 2.061-.443 3.175z"/><path fill="#FFF" d="M19.114 18.682c-.336-.354-.926-.582-1.623-.582s-1.287.227-1.623.582a1.033 1.033 0 0 0-.297.645c-.057.523-.025.975.036 1.694.058.687.169 1.601.314 2.534.103.662.187 1.021.263 1.277.123.416.585.779 1.307.779s1.184-.363 1.308-.779c.076-.256.16-.613.263-1.277a38.54 38.54 0 0 0 .314-2.534c.061-.72.093-1.171.037-1.694a1.035 1.035 0 0 0-.299-.645zm-3.453-3.157a1.833 1.833 0 1 0 3.666 0 1.833 1.833 0 0 0-3.666 0zm1.81-7.232c-4.286.012-7.798 3.489-7.851 7.775-.043 3.472 2.173 6.442 5.268 7.53a.106.106 0 0 0 .14-.115c-.041-.27-.079-.54-.114-.807a.268.268 0 0 0-.159-.213 6.878 6.878 0 0 1-4.127-6.363c.036-3.729 3.081-6.769 6.81-6.8 3.812-.031 6.924 3.062 6.924 6.867a6.877 6.877 0 0 1-4.128 6.296.268.268 0 0 0-.159.213 40.01 40.01 0 0 1-.114.806.105.105 0 0 0 .14.115c3.065-1.078 5.268-4.002 5.268-7.431-.001-4.348-3.546-7.886-7.898-7.873zm-.143 3.613a4.272 4.272 0 0 1 4.437 4.264 4.259 4.259 0 0 1-1.349 3.111.33.33 0 0 0-.103.257c.016.293.01.578-.009.898a.104.104 0 0 0 .162.092 5.274 5.274 0 0 0 2.306-4.358 5.28 5.28 0 0 0-5.484-5.271c-2.791.108-5.031 2.409-5.066 5.203a5.272 5.272 0 0 0 2.306 4.427.103.103 0 0 0 .161-.092 7.34 7.34 0 0 1-.009-.899.326.326 0 0 0-.104-.257 4.255 4.255 0 0 1-1.347-3.225 4.282 4.282 0 0 1 4.099-4.15z"/></g></svg>