<svg xmlns="http://www.w3.org/2000/svg" width="38" height="38" viewBox="0 0 300 300"><path fill="#040B77" d="M287.039 48.082c-10.988-7.666-29.168-9.01-41.972-4.584-2.047.708-3.752 1.459-4.239 3.203-6.627 23.633-13.87 37.573-36.498 47.641 2.259.484 17.666.283 27.145-.846 2.014-.24 2.277 2.048.641 2.5-7.296 2.017-15.675 3.443-21.949 4.165-17.084 1.965-35.107 4.673-53.275 8.472-36.501 7.632-53.669 28.37-58.675 67.242-5.276 41.006-12.242 60.8-36.972 74.376 1.098.26 6.725.6 13.862-.025 1.71-.149 1.99 1.453.328 1.914-9.08 2.522-22.455 4.789-30.321 5.717-1.034.123-2.489 1.332-2.543 2.796-.171 4.578 1.2 8.047 3.509 10.226 1.152 1.086 2.773 1.516 4.489.904 46.402-16.438 67.81-42.793 74.149-92.908 1.063-8.404 2.078-14.768 3.57-19.67-4.681 2.051-9.944 5.559-16.296 11.851-1.253 1.241-3.041-.061-1.997-1.512 13.31-18.513 29.442-26.196 50.167-29.394 74.199-11.451 100.568-28.087 128.455-88.058.75-1.619-.197-3.044-1.578-4.01zm-14.684-1.314c-5.672.671-11.231 2.379-14.986 4.702-1.671 1.033-3.06 1.243-4.843.57-2.198-.83-4.125-1.806-5.693-2.884-1.679-1.152-1.517-1.898.119-2.644 4.454-2.034 11.12-3.003 18.448-2.359a49.5 49.5 0 0 1 6.99 1.113c1.71.403 1.62 1.307-.035 1.502z"/><g fill="#040B77"><path d="M33.282 153.389c-5.929-8.924-8.742-14.832-10.89-20.449-.318-.831-.807-2.005-1.37-3.041-.821-1.511-3.274-6.939-3.734-8.162-.467-1.24-2.227-1.059-2.497.182-.23 1.058-.447 2.121-.653 3.188-.119.621-.116 1.044.105 1.782 2.912 9.658 8.631 19.239 16.345 28.315 1.289 1.513 3.919.028 2.694-1.815zM238.758 212.05c-1.254.233-2.268.55-3.17.929-13.674 5.748-28.494 8.894-49.305 9.712-2.178.087-2.139 3.022-.139 3.198 26.636 2.332 52.287-1.056 71.033-10.445 1.997-.998 2.646-1.815 3.152-2.759.942-1.752 1.85-3.527 2.714-5.325.429-.893-.358-2.205-1.821-1.646-6.555 2.505-14.971 4.935-22.464 6.336zM217.756 235.597c-1.346.079-2.579.218-3.705.433-17.786 3.387-30.491 3.993-49.396 2.33-2.244-.199-2.487 2.848-.545 3.235 25.498 5.095 53.807 5.433 74.15-.896 1.987-.618 3.309-1.503 4.318-2.639a132.842 132.842 0 0 0 4.058-4.777c.767-.947-.079-2.43-1.386-2.072-8.766 2.394-17.48 3.719-27.494 4.386zM19.651 145.755a81.044 81.044 0 0 1-4.869-8.989c-.496-1.078-2.271-.826-2.396.439-.091.928-.172 1.858-.244 2.792-.042.544.011.963.207 1.475 4.115 10.706 11.217 21.072 19.4 30.246 1.328 1.489 3.801-.288 2.582-2.035-5.586-8.007-9.377-13.896-13.007-20.913-.384-.74-.931-1.829-1.673-3.015z"/><path fill-rule="evenodd" clip-rule="evenodd" d="M50.937 240.314c2.477-1.191 4.757-2.418 6.862-3.718 1.807-1.113 1.305-3.425.287-4.378-18.063-16.896-30.845-39.371-35.593-64.682-.212-1.129-.899-2.842-1.802-4.141a111.79 111.79 0 0 1-6.481-10.501c-.636-1.173-2.458-.79-2.425.614.806 33.12 13.802 63.218 34.67 85.98 1.29 1.409 2.53 1.768 4.482.826zM184.986 255.041c-14.103 5.91-29.585 9.182-45.835 9.182-11.951 0-23.489-1.77-34.367-5.055-2.372-.717-3.498-.218-5.086 1.12a110.63 110.63 0 0 1-9.156 6.917c-1.475 1.002-1.393 3.346.633 4.227 16.145 7.03 33.966 10.934 52.698 10.934 29.063 0 55.932-9.387 77.747-25.289 1.167-.851.588-2.479-1.025-2.332-12.402 1.112-19.571.845-31.983-.316-1.32-.124-2.18.009-3.626.612zM224.66 45.688c-22.336-17.287-50.358-27.58-80.788-27.58-59.033 0-109.02 38.718-125.963 92.144-.259.819-.337 1.895-.083 3.056 2.046 9.339 6.543 18.011 14.488 27.467 1.317 1.568 3.807.158 2.722-1.936-11.556-22.293-8.107-32.169-7.173-34.685 16.791-45.166 60.276-77.347 111.288-77.347 30.782 0 58.822 11.721 79.915 30.938 1.465 1.333 3.492.848 4.106-.675.938-2.327 1.823-4.845 2.692-7.58.365-1.15-.01-2.879-1.204-3.802zM266.09 111.536a112.076 112.076 0 0 1-8.245 7.505c-1.851 1.524-2.239 3.271-1.89 5.209 2.765 15.281 2.477 31.635-.551 45.593-4.086 18.837-30.464 28.557-53.676 32.884-2.271.424-2.047 3.189.137 3.152 25.434-.436 48.986-5.236 66.057-15.061 1.377-.79 2.373-2.029 2.758-3.338 3.465-11.813 5.322-24.312 5.322-37.244 0-13.317-1.975-26.173-5.64-38.294-.651-2.154-3.031-1.65-4.272-.406z"/></g></svg>
