<?xml version="1.0" encoding="utf-8"?>
<!-- Generator: Adobe Illustrator 16.0.4, SVG Export Plug-In . SVG Version: 6.00 Build 0)  -->
<!DOCTYPE svg PUBLIC "-//W3C//DTD SVG 1.1//EN" "http://www.w3.org/Graphics/SVG/1.1/DTD/svg11.dtd">
<svg version="1.1" id="Ebene_1" xmlns="http://www.w3.org/2000/svg" xmlns:xlink="http://www.w3.org/1999/xlink" x="0px" y="0px"
	 width="300px" height="300px" viewBox="0 0 300 300" enable-background="new 0 0 300 300" xml:space="preserve">
<path fill="#FFFFFF" d="M288.2,52.274c-10.622-7.411-28.197-8.71-40.576-4.432c-1.974,0.687-3.63,1.408-4.097,3.096
	c-6.404,22.851-13.41,36.325-35.283,46.055c2.184,0.467,17.074,0.275,26.241-0.816c1.946-0.231,2.198,1.978,0.62,2.418
	c-7.057,1.948-15.152,3.325-21.219,4.024c-16.518,1.902-33.941,4.518-51.503,8.191c-35.283,7.378-51.882,27.422-56.717,65
	c-5.101,39.643-11.838,58.774-35.742,71.9c1.062,0.25,6.499,0.578,13.4-0.023c1.648-0.148,1.925,1.398,0.318,1.848
	c-8.78,2.443-21.706,4.637-29.312,5.53c-1.002,0.118-2.405,1.28-2.458,2.695c-0.167,4.428,1.16,7.782,3.391,9.894
	c1.118,1.051,2.68,1.466,4.339,0.873c44.861-15.891,65.552-41.367,71.683-89.811c1.026-8.131,2.009-14.279,3.449-19.02
	c-4.525,1.984-9.616,5.373-15.752,11.455c-1.213,1.203-2.941-0.06-1.933-1.463c12.868-17.893,28.464-25.323,48.498-28.41
	c71.729-11.074,97.213-27.156,124.183-85.129C290.449,54.583,289.531,53.207,288.2,52.274z M274.001,51.002
	c-5.485,0.648-10.848,2.3-14.486,4.546c-1.612,1.001-2.952,1.2-4.683,0.551c-2.122-0.801-3.98-1.747-5.5-2.784
	c-1.625-1.118-1.467-1.838,0.118-2.557c4.3-1.971,10.751-2.903,17.829-2.283c2.281,0.196,4.531,0.556,6.762,1.078
	C275.688,49.94,275.604,50.818,274.001,51.002z"/>
<g>
	<path fill="#FFFFFF" d="M42.891,154.074c-5.728-8.626-8.453-14.334-10.526-19.771c-0.308-0.797-0.781-1.934-1.328-2.935
		c-0.793-1.461-3.164-6.705-3.606-7.895c-0.45-1.195-2.154-1.021-2.414,0.176c-0.223,1.025-0.435,2.055-0.63,3.083
		c-0.115,0.602-0.11,1.009,0.099,1.726c2.812,9.335,8.344,18.599,15.8,27.372C41.532,157.289,44.081,155.854,42.891,154.074z
		 M241.521,210.779c-1.208,0.224-2.191,0.535-3.056,0.901c-13.222,5.552-27.545,8.597-47.671,9.386
		c-2.103,0.088-2.07,2.92-0.131,3.1c25.749,2.248,50.541-1.029,68.67-10.108c1.924-0.96,2.558-1.751,3.041-2.667
		c0.908-1.684,1.789-3.408,2.622-5.143c0.421-0.865-0.341-2.133-1.758-1.595C256.906,207.082,248.766,209.422,241.521,210.779z
		 M221.221,233.544c-1.299,0.077-2.489,0.214-3.577,0.413c-17.196,3.28-29.477,3.861-47.753,2.258
		c-2.17-0.191-2.41,2.752-0.531,3.123c24.66,4.936,52.024,5.258,71.684-0.859c1.923-0.602,3.199-1.449,4.178-2.549
		c1.34-1.509,2.651-3.053,3.92-4.623c0.742-0.91-0.076-2.35-1.344-2C239.33,231.615,230.908,232.9,221.221,233.544z M29.716,146.695
		c-1.75-2.794-3.325-5.7-4.706-8.689c-0.484-1.042-2.199-0.799-2.317,0.426c-0.09,0.896-0.167,1.794-0.235,2.695
		c-0.041,0.528,0.012,0.936,0.198,1.43c3.977,10.347,10.841,20.37,18.754,29.235c1.284,1.439,3.675-0.273,2.498-1.965
		c-5.401-7.744-9.071-13.438-12.577-20.216C30.961,148.893,30.43,147.84,29.716,146.695z"/>
	<path fill="#FFFFFF" d="M59.958,238.103c2.392-1.15,4.599-2.341,6.636-3.595c1.748-1.073,1.255-3.306,0.276-4.232
		c-17.462-16.336-29.82-38.054-34.411-62.527c-0.204-1.088-0.865-2.744-1.739-3.998c-2.278-3.27-4.366-6.66-6.265-10.155
		c-0.617-1.136-2.378-0.761-2.347,0.597c0.779,32.015,13.347,61.111,33.517,83.111C56.875,238.668,58.071,239.012,59.958,238.103z
		 M189.542,252.338c-13.636,5.713-28.601,8.883-44.305,8.883c-11.555,0-22.71-1.711-33.223-4.887
		c-2.295-0.695-3.385-0.212-4.92,1.08c-2.831,2.377-5.786,4.611-8.85,6.686c-1.423,0.969-1.346,3.232,0.614,4.084
		c15.603,6.797,32.834,10.575,50.942,10.575c28.097,0,54.071-9.081,75.161-24.456c1.126-0.816,0.566-2.387-0.996-2.25
		c-11.985,1.072-18.92,0.823-30.918-0.303C191.773,251.631,190.946,251.754,189.542,252.338z M227.897,49.961
		C206.307,33.25,179.216,23.3,149.796,23.3c-57.064,0-105.385,37.426-121.766,89.073c-0.249,0.792-0.329,1.832-0.082,2.956
		c1.979,9.027,6.326,17.41,14.008,26.552c1.272,1.516,3.677,0.15,2.631-1.87c-11.171-21.55-7.836-31.099-6.936-33.533
		c16.235-43.662,58.266-74.77,107.585-74.77c29.759,0,56.858,11.332,77.251,29.907c1.416,1.29,3.373,0.823,3.971-0.65
		c0.903-2.252,1.766-4.687,2.602-7.331C229.416,52.525,229.053,50.853,227.897,49.961z M267.949,113.614
		c-2.531,2.548-5.199,4.975-7.973,7.255c-1.789,1.471-2.16,3.164-1.826,5.039c2.676,14.769,2.393,30.584-0.529,44.073
		c-3.951,18.208-29.457,27.609-51.889,31.79c-2.197,0.411-1.983,3.079,0.128,3.048c24.587-0.422,47.355-5.062,63.864-14.564
		c1.325-0.762,2.285-1.962,2.661-3.219c3.346-11.428,5.147-23.508,5.147-36.008c0-12.871-1.912-25.3-5.455-37.022
		C271.451,111.924,269.143,112.408,267.949,113.614L267.949,113.614z"/>
</g>
</svg>
