<svg xmlns="http://www.w3.org/2000/svg" xmlns:xlink="http://www.w3.org/1999/xlink" width="132.791" height="34.013" viewBox="0 0 132.791 34.013"><path fill="#777878" d="M132.78 9.079c0-.33 0-.66-.004-.99-.023-.72-.066-1.441-.197-2.152a7.173 7.173 0 0 0-.667-2.047A6.937 6.937 0 0 0 126.85.206c-.705-.128-1.43-.171-2.148-.189-.329-.005-.664-.011-.992-.014C123.323 0 122.933 0 122.546 0H10.25c-.393 0-.783 0-1.176.002-.329.003-.656.009-.988.014-.716.019-1.44.062-2.154.19a7.191 7.191 0 0 0-2.044.675 6.889 6.889 0 0 0-1.74 1.267A6.686 6.686 0 0 0 .881 3.89a7.091 7.091 0 0 0-.672 2.047c-.13.711-.174 1.432-.193 2.152-.01.33-.011.66-.016.99v15.859c.005.333.006.658.016.99.018.721.063 1.441.193 2.152.125.722.338 1.396.672 2.047.326.642.752 1.23 1.266 1.735a6.681 6.681 0 0 0 1.741 1.267 7.14 7.14 0 0 0 2.044.68c.714.129 1.438.171 2.154.191.332.006.659.011.988.011.395.002.783.002 1.177.002h112.295c.387 0 .777 0 1.165-.002.328 0 .662-.005.991-.011.721-.021 1.443-.062 2.15-.191a7.225 7.225 0 0 0 2.051-.68 6.627 6.627 0 0 0 1.738-1.267 6.92 6.92 0 0 0 1.271-1.735 7.237 7.237 0 0 0 .667-2.047c.131-.711.174-1.433.197-2.152.004-.332.004-.657.004-.99.011-.391.011-.779.011-1.177V10.253c0-.393 0-.784-.011-1.174z"/><path fill="#FFF" d="M132.122 23.761V10.252c0-.389 0-.773-.01-1.16 0-.338 0-.664-.004-.989-.018-.613-.057-1.344-.188-2.045a6.392 6.392 0 0 0-.604-1.869 6.35 6.35 0 0 0-1.147-1.571 6.125 6.125 0 0 0-1.571-1.145 6.616 6.616 0 0 0-1.865-.614c-.723-.129-1.475-.163-2.051-.18l-.924-.012-.055-.002c-.383-.003-.773-.003-1.158-.003h-72.65V33.35h72.65c.384 0 .774 0 1.161-.002.326 0 .654-.006.982-.012.611-.02 1.336-.056 2.045-.181a6.553 6.553 0 0 0 1.865-.614 6.178 6.178 0 0 0 1.569-1.144 6.18 6.18 0 0 0 1.151-1.576 6.615 6.615 0 0 0 .605-1.854c.129-.709.168-1.438.186-2.059.006-.318.006-.644.006-.972.009-.401.009-.785.009-1.177l-.002.002z"/><g fill="#777878"><path d="M61.764 11.183h-2.566l-.648 1.847h-.845l2.378-6.451h.796l2.378 6.451h-.845l-.648-1.847zm-2.33-.684h2.093l-1.033-2.942h-.026l-1.034 2.942zM64.141 8.379h.733v.76h.018c.291-.532.755-.805 1.475-.805 1.021 0 1.611.657 1.611 1.712v2.982h-.779v-2.843c0-.751-.348-1.163-1.072-1.163-.751 0-1.207.523-1.207 1.31v2.696h-.778V8.379zM69.272 6.578h.779V9.14h.018c.285-.532.766-.805 1.476-.805 1.021 0 1.638.688 1.638 1.726v2.969h-.779v-2.826c0-.738-.371-1.18-1.1-1.18-.773 0-1.252.527-1.252 1.333v2.673h-.777V6.578h-.003zM74.209 10.705c0-1.449.841-2.37 2.155-2.37 1.311 0 2.15.921 2.15 2.37 0 1.444-.84 2.37-2.15 2.37-1.312-.001-2.155-.927-2.155-2.37zm.774-3.814a.5.5 0 1 1 1 0 .5.5 0 0 1-1 0zm2.741 3.814c0-1.06-.504-1.686-1.359-1.686s-1.363.63-1.363 1.686c0 1.06.512 1.686 1.363 1.686.855 0 1.359-.627 1.359-1.686zm-.981-3.814c0-.277.23-.5.503-.5a.5.5 0 0 1 0 1.001.508.508 0 0 1-.503-.501zM79.565 8.379h.732v.76h.018c.14-.492.582-.805 1.127-.805.133 0 .246.013.312.027v.76a1.593 1.593 0 0 0-.416-.044c-.604 0-.996.434-.996 1.091v2.861h-.777v-4.65zM86.284 11.697c-.129.805-.938 1.377-1.936 1.377-1.314 0-2.143-.908-2.143-2.352s.832-2.387 2.104-2.387c1.248 0 2.031.876 2.031 2.285v.295h-3.336v.045c0 .872.541 1.439 1.357 1.439.572 0 1.025-.273 1.154-.702h.769zm-3.271-1.39h2.524c-.017-.778-.515-1.296-1.237-1.296-.72-.001-1.238.522-1.287 1.296zM87.394 8.379h.733v.76h.019c.291-.532.754-.805 1.475-.805 1.021 0 1.609.657 1.609 1.712v2.982h-.777v-2.843c0-.751-.35-1.163-1.072-1.163-.751 0-1.207.523-1.207 1.31v2.696h-.777V8.379h-.003zM94.427 11.706c0-.8.612-1.274 1.748-1.341l1.293-.076v-.385c0-.572-.377-.885-1.054-.885-.53 0-.931.272-1.021.707h-.742c.023-.792.787-1.391 1.775-1.391 1.104 0 1.814.585 1.814 1.502v3.192h-.736v-.8h-.02c-.264.514-.844.867-1.492.867-.938 0-1.565-.567-1.565-1.39zm3.041-.443v-.371l-1.203.076c-.689.04-1.045.295-1.045.738 0 .425.371.724.95.724.746 0 1.298-.505 1.298-1.167zM103.317 13.029h-.737v-.773h-.019c-.285.541-.76.818-1.475.818-1.016 0-1.609-.657-1.609-1.712V8.379h.777v2.844c0 .755.354 1.162 1.072 1.162.756 0 1.211-.519 1.211-1.31V8.379h.779v4.65h.001zM104.845 9.019h-.648v-.64h.648v-.428c0-.863.377-1.243 1.252-1.243.151 0 .28.014.43.036v.635a2.156 2.156 0 0 0-.354-.032c-.386 0-.552.179-.557.608v.424h.908v.64h-.903v4.01h-.776v-4.01z"/></g><path d="M59.619 23.919c0 .353.06.652.18.901s.287.452.502.611c.214.159.461.274.74.348.279.072.581.109.907.109.352 0 .652-.041.901-.122.249-.082.45-.188.604-.315.155-.129.266-.277.335-.444.068-.167.103-.337.103-.509 0-.352-.08-.611-.238-.778s-.333-.285-.521-.354c-.326-.12-.706-.234-1.139-.342a68.945 68.945 0 0 1-1.603-.418 3.43 3.43 0 0 1-.984-.405 2.35 2.35 0 0 1-.625-.56 1.968 1.968 0 0 1-.328-.657 2.638 2.638 0 0 1-.096-.707c0-.464.096-.864.29-1.204.193-.339.448-.619.766-.843.317-.223.678-.388 1.081-.495s.811-.161 1.223-.161c.48 0 .933.062 1.358.187.425.125.798.312 1.12.56.322.249.577.556.766.921.189.364.283.787.283 1.268h-1.609c-.043-.592-.244-1.011-.604-1.255-.36-.245-.82-.367-1.377-.367-.188 0-.382.02-.579.059a1.87 1.87 0 0 0-.541.192 1.197 1.197 0 0 0-.405.367.993.993 0 0 0-.161.579c0 .326.101.581.303.766.201.185.465.324.792.418l.405.109c.236.064.5.136.792.213l.856.226c.279.072.478.126.599.16.3.095.562.224.785.387s.41.35.56.56c.15.21.262.436.334.676s.109.48.109.721c0 .515-.105.954-.315 1.319-.21.364-.487.663-.83.895a3.629 3.629 0 0 1-1.171.508 5.618 5.618 0 0 1-1.338.161 5.496 5.496 0 0 1-1.48-.193 3.424 3.424 0 0 1-1.209-.592 2.893 2.893 0 0 1-.824-1.023c-.206-.416-.313-.907-.322-1.474h1.605zM66.028 20.329h1.107v-1.994h1.467v1.994h1.325v1.095h-1.325v3.552c0 .154.006.288.02.399a.684.684 0 0 0 .09.283.421.421 0 0 0 .213.173c.094.039.223.059.385.059.104 0 .207-.002.31-.007.103-.004.206-.02.309-.045v1.133a41.02 41.02 0 0 0-.476.052 4.348 4.348 0 0 1-.477.025c-.387 0-.697-.037-.934-.109-.236-.073-.42-.181-.553-.322s-.224-.319-.271-.534a3.888 3.888 0 0 1-.083-.733v-3.925h-1.107v-1.096zM71.022 17.793h1.467v1.39h-1.467v-1.39zm0 2.536h1.467v6.654h-1.467v-6.654zM73.416 20.329h1.106v-1.994h1.468v1.994h1.325v1.095H75.99v3.552c0 .154.007.288.019.399a.7.7 0 0 0 .091.283.427.427 0 0 0 .212.173c.095.039.223.059.387.059a6.4 6.4 0 0 0 .309-.007c.104-.004.206-.02.309-.045v1.133a41.23 41.23 0 0 0-.477.052 4.33 4.33 0 0 1-.476.025c-.386 0-.697-.037-.933-.109a1.254 1.254 0 0 1-.554-.322 1.1 1.1 0 0 1-.271-.534 4.055 4.055 0 0 1-.084-.733v-3.925h-1.106v-1.096zM82.862 22.555c-.061-.411-.225-.723-.495-.933s-.611-.315-1.023-.315a2.08 2.08 0 0 0-.604.097 1.436 1.436 0 0 0-.592.36c-.181.176-.331.42-.451.733s-.18.723-.18 1.229c0 .274.031.549.096.823s.168.52.31.733c.142.215.323.389.547.521s.493.199.811.199c.429 0 .783-.133 1.062-.398.279-.266.453-.64.521-1.12h1.467c-.137.867-.465 1.53-.984 1.988-.519.46-1.207.689-2.065.689-.523 0-.984-.089-1.384-.265a2.941 2.941 0 0 1-1.01-.721 3.073 3.073 0 0 1-.625-1.087 4.27 4.27 0 0 1-.211-1.364c0-.498.068-.966.205-1.403s.344-.817.617-1.139a2.904 2.904 0 0 1 1.023-.76c.408-.185.887-.276 1.436-.276.387 0 .753.05 1.101.147.347.1.656.247.927.444.27.197.49.446.662.746.172.301.275.657.309 1.068h-1.47zM85.526 17.793h1.467v3.411h.026c.181-.301.448-.552.804-.753a2.373 2.373 0 0 1 1.191-.303c.729 0 1.304.188 1.725.566.42.377.631.943.631 1.698v4.569h-1.468V22.8c-.017-.523-.128-.903-.335-1.14-.205-.235-.527-.354-.965-.354-.249 0-.472.045-.669.135a1.453 1.453 0 0 0-.502.374 1.705 1.705 0 0 0-.321.56 1.979 1.979 0 0 0-.117.682v3.926h-1.467v-9.19zM94.06 24.036c0 .258.036.506.109.746.072.24.182.451.328.631.146.181.33.324.553.432.224.107.49.16.799.16.429 0 .773-.092 1.035-.276s.457-.461.586-.83h1.391c-.078.36-.211.682-.399.965s-.417.521-.683.715-.564.339-.895.438-.676.148-1.035.148c-.523 0-.987-.086-1.391-.258s-.744-.412-1.023-.721a3.094 3.094 0 0 1-.631-1.107 4.508 4.508 0 0 1-.211-1.415c0-.472.074-.921.225-1.345.15-.425.364-.799.644-1.12a3.058 3.058 0 0 1 1.011-.766c.395-.188.84-.283 1.338-.283.523 0 .993.109 1.409.328s.762.508 1.036.869c.274.36.475.774.599 1.241.124.468.156.951.097 1.448H94.06zm3.423-.965a2.42 2.42 0 0 0-.148-.67c-.082-.214-.193-.4-.335-.56s-.313-.287-.515-.386-.427-.148-.676-.148a1.76 1.76 0 0 0-.701.135 1.608 1.608 0 0 0-.541.374c-.15.158-.27.345-.359.56a1.902 1.902 0 0 0-.148.695h3.423zM100.07 20.329h1.377v1.287h.026c.042-.18.126-.355.25-.527.125-.172.275-.328.451-.47s.371-.255.585-.341.434-.129.657-.129a3.087 3.087 0 0 1 .553.038v1.416c-.104-.017-.208-.032-.315-.045s-.212-.02-.315-.02c-.248 0-.482.05-.701.148s-.41.244-.572.438c-.164.193-.293.431-.387.714s-.142.609-.142.979v3.166h-1.467v-6.654z"/><g><defs><path id="a" d="M132.125 23.761c0 .392 0 .774-.009 1.177 0 .328 0 .652-.006.971-.018.62-.057 1.35-.186 2.059a6.474 6.474 0 0 1-.605 1.855 6.344 6.344 0 0 1-1.151 1.576 6.175 6.175 0 0 1-1.569 1.143 6.607 6.607 0 0 1-1.865.615c-.709.125-1.434.161-2.045.18-.328.006-.656.013-.982.013-.387.002-.777.002-1.161.002H10.25c-.392 0-.781 0-1.177-.002-.325 0-.646-.004-.968-.013-.617-.018-1.343-.053-2.058-.18a6.55 6.55 0 0 1-1.858-.615 6.188 6.188 0 0 1-1.575-1.147 6.157 6.157 0 0 1-1.142-1.565 6.623 6.623 0 0 1-.611-1.865c-.134-.736-.167-1.481-.181-2.053a26.153 26.153 0 0 1-.013-.687l-.004-.285V9.088l.006-.298c.002-.226.005-.454.013-.685.014-.567.047-1.312.182-2.053.12-.685.319-1.292.611-1.862a6.059 6.059 0 0 1 1.144-1.572 6.24 6.24 0 0 1 1.572-1.145A6.578 6.578 0 0 1 6.047.859c.729-.129 1.48-.162 2.05-.18l.977-.014c.396-.003.784-.003 1.175-.003h112.295c.385 0 .775 0 1.158.003l.055.002.924.012c.576.017 1.328.051 2.051.18a6.616 6.616 0 0 1 1.865.614 6.125 6.125 0 0 1 1.571 1.145c.462.461.847.989 1.147 1.571.293.579.492 1.189.604 1.869.132.701.171 1.432.188 2.045.004.325.004.651.004.989.01.387.01.771.01 1.16v13.509h.004z"/></defs><clipPath id="b"><use xlink:href="#a" overflow="visible"/></clipPath><g clip-path="url(#b)"><path fill="#2B2A2A" d="M0 0h49.996v33.969H0z"/><path fill="#FBD932" d="M9.371 12.166h4.215v9.657H9.371z"/><path fill="#F59031" d="M13.586 12.166h1.473v9.657h-1.473z"/><path fill="#EC4930" d="M15.06 12.166h6.344v9.657H15.06z"/><path fill="#1EB5E9" d="M21.403 12.166h9.209v9.657h-9.209z"/><path fill="#D4DA64" d="M34.868 12.166h5.566v9.657h-5.566z"/><path fill="#FFF" d="M31.708 12.166h.207v9.657h-.207zM33.657 12.166h.208v9.657h-.208zM32.373 9.321h.828V24.77h-.828z"/></g></g></svg>