<?xml version="1.0" encoding="UTF-8" standalone="no"?>
<!DOCTYPE svg PUBLIC "-//W3C//DTD SVG 1.1//EN" "http://www.w3.org/Graphics/SVG/1.1/DTD/svg11.dtd">
<svg width="100%" height="100%" viewBox="0 0 717 139" version="1.1" xmlns="http://www.w3.org/2000/svg" xmlns:xlink="http://www.w3.org/1999/xlink" xml:space="preserve" xmlns:serif="http://www.serif.com/" style="fill-rule:evenodd;clip-rule:evenodd;stroke-linejoin:round;stroke-miterlimit:2;">
    <g id="Artboard1" transform="matrix(0.785318,0,0,0.786529,0,0)">
        <rect x="0" y="0" width="912" height="176" style="fill:none;"/>
        <g transform="matrix(1.27337,0,0,1.27141,-249.313,-34.0299)">
            <path d="M206.884,148.503C202.407,148.503 198.434,147.831 195.916,146.601L197.484,142.46C199.218,143.243 202.854,144.139 207.108,144.139C213.038,144.139 216.116,141.677 216.116,137.704C216.116,133.787 213.934,132.108 206.716,129.479C199.889,127.017 196.42,123.827 196.42,117.616C196.42,111.294 201.624,107.433 209.178,107.433C213.542,107.433 217.178,108.328 220.2,109.671L218.578,113.98C215.78,112.805 212.535,111.854 209.066,111.854C204.086,111.854 201.512,114.203 201.512,117.672C201.512,121.701 203.75,123.322 210.24,125.73C217.29,128.359 221.152,130.989 221.152,137.256C221.152,144.362 215.612,148.503 206.884,148.503M227.976,147.943L232.9,147.943L232.9,117.952L227.976,117.952L227.976,147.943ZM233.348,109.839C233.348,111.965 232.004,112.972 230.493,112.972C228.871,112.972 227.584,111.965 227.584,109.839C227.584,107.656 228.871,106.705 230.493,106.705C232.004,106.705 233.348,107.656 233.348,109.839ZM244.816,129.982L260.091,129.982C260.035,124.89 257.797,121.42 252.817,121.42C248.117,121.42 245.319,124.61 244.817,129.982M265.239,130.933L265.239,133.898L244.705,133.898C244.873,140.669 248.285,144.306 254.273,144.306C257.182,144.306 260.148,143.747 262.499,142.851L263.897,146.544C260.82,147.887 258.133,148.504 254.049,148.504C245.488,148.504 239.613,143.187 239.613,133.171C239.613,123.323 244.928,117.392 252.873,117.392C260.54,117.392 265.24,122.763 265.24,130.933M276.651,132.78L276.651,133.004C276.651,140.389 278.611,144.418 285.213,144.418C290.584,144.418 293.213,140.334 293.213,132.891C293.213,125.338 290.584,121.533 285.1,121.533C278.721,121.533 276.651,125.114 276.651,132.78ZM276.651,115.77C276.651,118.288 276.483,120.693 276.372,121.925L276.652,121.925C278.331,119.407 281.24,117.448 285.94,117.448C293.382,117.448 298.306,122.652 298.306,132.948C298.306,143.243 293.326,148.503 285.94,148.503C281.24,148.503 278.33,146.545 276.652,144.138L276.26,144.138L275.254,147.943L271.728,147.943L271.728,107.32L276.652,105.418L276.652,115.769L276.651,115.77ZM308.542,129.982L323.817,129.982C323.762,124.89 321.523,121.42 316.544,121.42C311.844,121.42 309.046,124.61 308.542,129.982M328.966,130.933L328.966,133.898L308.431,133.898C308.599,140.669 312.012,144.306 317.998,144.306C320.908,144.306 323.874,143.747 326.224,142.851L327.622,146.544C324.545,147.887 321.859,148.504 317.774,148.504C309.214,148.504 303.339,143.187 303.339,133.171C303.339,123.323 308.654,117.392 316.6,117.392C324.266,117.392 328.966,122.763 328.966,130.933M360.745,128.415L360.745,147.943L355.877,147.943L355.877,128.751C355.877,123.939 353.751,121.533 349.162,121.533C342.504,121.533 340.378,125.394 340.378,132.388L340.378,147.943L335.454,147.943L335.454,117.952L339.427,117.952L340.153,122.037L340.433,122.037C342.391,118.903 346.085,117.393 349.89,117.393C357.052,117.393 360.745,120.693 360.745,128.415M380.774,143.747L382.117,147.271C381.053,147.943 378.927,148.503 376.633,148.503C371.933,148.503 367.848,146.488 367.848,139.215L367.848,112.916L372.772,111.069L372.772,117.952L381.446,117.952L381.446,121.757L372.772,121.757L372.772,139.102C372.772,142.739 374.731,144.475 377.472,144.475C378.591,144.475 380.102,144.083 380.774,143.747M390.06,129.982L405.335,129.982C405.28,124.89 403.041,121.42 398.062,121.42C393.362,121.42 390.564,124.61 390.06,129.982M410.484,130.933L410.484,133.898L389.949,133.898C390.117,140.669 393.529,144.306 399.516,144.306C402.426,144.306 405.392,143.747 407.742,142.851L409.14,146.544C406.063,147.887 403.377,148.504 399.292,148.504C390.732,148.504 384.857,143.187 384.857,133.171C384.857,123.323 390.172,117.392 398.117,117.392C405.784,117.392 410.484,122.763 410.484,130.933M442.263,128.415L442.263,147.943L437.395,147.943L437.395,128.751C437.395,123.939 435.269,121.533 430.68,121.533C424.022,121.533 421.896,125.394 421.896,132.388L421.896,147.943L416.972,147.943L416.972,117.952L420.945,117.952L421.671,122.037L421.951,122.037C423.909,118.903 427.603,117.393 431.408,117.393C438.57,117.393 442.263,120.693 442.263,128.415M447.071,130.766L460.612,130.766L462.292,135.13L448.75,135.13L447.071,130.766ZM473.368,147.943L473.368,112.413L460.89,112.413L462.57,107.993L490.826,107.993L490.826,112.413L478.404,112.413L478.404,147.943L473.368,147.943ZM503.414,133.451C495.916,133.731 493.51,135.857 493.51,139.662C493.51,143.019 495.748,144.53 498.994,144.53C504.029,144.53 507.834,141.788 507.834,135.97L507.834,133.283L503.414,133.451ZM512.702,127.521L512.702,147.943L509.122,147.943L508.17,143.69L507.946,143.69C505.316,146.992 502.91,148.503 497.876,148.503C492.447,148.503 488.418,145.705 488.418,139.606C488.418,133.619 493.008,130.317 502.799,130.038L507.891,129.87L507.891,128.08C507.891,123.1 505.597,121.421 501.681,121.421C498.546,121.421 495.692,122.541 493.231,123.715L491.721,120.022C494.351,118.623 498.042,117.448 501.959,117.448C509.233,117.448 512.702,120.526 512.702,127.52L512.702,127.521ZM536.76,127.52C536.76,123.155 534.69,120.973 530.605,120.973C526.52,120.973 524.45,123.211 524.45,127.576C524.45,131.716 526.52,133.787 530.66,133.787C534.745,133.787 536.76,131.661 536.76,127.52M540.117,151.524C540.117,149.901 539.669,148.838 538.775,148.279C537.822,147.719 536.032,147.439 533.347,147.439L528.197,147.439C524.002,147.439 521.932,149.23 521.932,152.867C521.932,156 524.394,157.623 529.318,157.623C536.536,157.623 540.117,155.609 540.117,151.524M517.232,153.035C517.232,149.175 519.414,146.711 523.779,145.649C522.044,144.809 521.149,143.355 521.149,141.453C521.149,139.383 522.379,137.647 524.785,136.193C521.372,134.793 519.582,131.213 519.582,127.744C519.582,120.749 523.947,117.392 530.772,117.392C532.339,117.392 533.682,117.56 534.858,117.952L545.208,117.952L543.754,121.756L539.837,121.756C541.012,123.323 541.627,125.282 541.627,127.576C541.627,133.787 537.096,137.2 530.605,137.2C529.598,137.2 528.815,137.144 528.255,137.032C526.408,138.039 525.513,139.27 525.513,140.668C525.513,142.179 527.023,142.963 529.933,142.963L535.026,142.963C541.069,142.963 544.818,145.705 544.818,151.077C544.818,157.958 539.668,161.372 529.374,161.372C522.38,161.372 517.232,158.965 517.232,153.035M557.516,148.503C553.32,148.503 550.41,147.831 548.116,146.601L549.571,142.796C551.529,143.635 554.775,144.53 557.628,144.53C562.608,144.53 564.734,142.796 564.734,140.109C564.734,137.872 563.223,136.528 557.348,134.291C551.528,132.053 548.06,130.261 548.06,125.338C548.06,120.246 552.592,117.393 559.307,117.393C562.944,117.393 566.077,118.176 568.874,119.407L567.364,123.38C564.79,122.26 561.88,121.42 558.971,121.42C554.941,121.42 552.76,122.82 552.76,125.059C552.76,127.576 554.718,128.583 560.482,130.766C566.189,132.892 569.491,134.851 569.491,139.662C569.491,145.482 564.846,148.502 557.516,148.502M572.117,130.766L585.658,130.766L587.338,135.13L573.796,135.13L572.117,130.766ZM607.31,119.016C606.975,118.12 605.8,114.426 605.409,113.029C604.849,115.323 604.122,117.729 603.673,119.016L599.141,131.102L611.788,131.102L607.311,119.016L607.31,119.016ZM613.298,135.578L597.463,135.578L592.707,147.944L587.615,147.944L603.225,107.824L607.758,107.824L623.314,147.944L618.11,147.944L613.298,135.578ZM647.594,133.955L647.594,133.059C647.594,125.618 645.58,121.477 638.921,121.477C633.606,121.477 630.976,126.01 630.976,133.115C630.976,140.277 633.606,144.418 638.978,144.418C645.3,144.418 647.594,140.949 647.594,133.955M625.884,133.004C625.884,122.708 630.808,117.393 638.25,117.393C642.894,117.393 645.692,119.351 647.538,121.812L647.874,121.812C647.762,120.861 647.538,118.512 647.538,117.393L647.538,107.32L652.462,105.418L652.462,147.943L648.49,147.943L647.762,143.915L647.538,143.915C645.747,146.488 642.894,148.503 638.194,148.503C630.752,148.503 625.884,143.299 625.884,133.004M656.655,117.952L661.915,117.952L668.295,135.634C669.189,138.096 670.365,141.732 670.7,143.579L670.924,143.579C671.315,141.732 672.602,138.039 673.441,135.634L679.821,117.952L685.081,117.952L673.666,147.943L668.014,147.943L656.655,117.953L656.655,117.952ZM692.24,129.982L707.515,129.982C707.459,124.89 705.221,121.42 700.241,121.42C695.541,121.42 692.743,124.61 692.241,129.982M712.663,130.933L712.663,133.898L692.128,133.898C692.296,140.669 695.709,144.306 701.696,144.306C704.606,144.306 707.571,143.747 709.922,142.851L711.32,146.544C708.243,147.887 705.556,148.504 701.472,148.504C692.912,148.504 687.036,143.187 687.036,133.171C687.036,123.323 692.351,117.392 700.297,117.392C707.963,117.392 712.663,122.763 712.663,130.933M744.442,128.415L744.442,147.943L739.574,147.943L739.574,128.751C739.574,123.939 737.449,121.533 732.861,121.533C726.201,121.533 724.076,125.394 724.076,132.388L724.076,147.943L719.152,147.943L719.152,117.952L723.124,117.952L723.851,122.037L724.131,122.037C726.09,118.903 729.783,117.393 733.588,117.393C740.751,117.393 744.443,120.693 744.443,128.415M764.47,143.747L765.815,147.271C764.751,147.943 762.625,148.503 760.33,148.503C755.63,148.503 751.546,146.488 751.546,139.215L751.546,112.916L756.47,111.069L756.47,117.952L765.143,117.952L765.143,121.757L756.47,121.757L756.47,139.102C756.47,142.739 758.428,144.475 761.17,144.475C762.289,144.475 763.8,144.083 764.47,143.747M770.232,147.943L775.156,147.943L775.156,117.952L770.232,117.952L770.232,147.943ZM775.605,109.839C775.605,111.965 774.261,112.972 772.75,112.972C771.128,112.972 769.841,111.965 769.841,109.839C769.841,107.656 771.128,106.705 772.75,106.705C774.261,106.705 775.605,107.656 775.605,109.839ZM791.102,148.503C786.906,148.503 783.996,147.831 781.702,146.601L783.157,142.796C785.115,143.635 788.361,144.53 791.214,144.53C796.194,144.53 798.32,142.796 798.32,140.109C798.32,137.872 796.809,136.528 790.934,134.291C785.114,132.053 781.646,130.261 781.646,125.338C781.646,120.246 786.178,117.393 792.893,117.393C796.53,117.393 799.663,118.176 802.46,119.407L800.95,123.38C798.376,122.26 795.466,121.42 792.557,121.42C788.527,121.42 786.346,122.82 786.346,125.059C786.346,127.576 788.304,128.583 794.068,130.766C799.775,132.892 803.077,134.851 803.077,139.662C803.077,145.482 798.432,148.502 791.102,148.502M820.923,143.747L822.266,147.271C821.202,147.943 819.076,148.503 816.782,148.503C812.082,148.503 807.997,146.488 807.997,139.215L807.997,112.916L812.921,111.069L812.921,117.952L821.595,117.952L821.595,121.757L812.921,121.757L812.921,139.102C812.921,142.739 814.88,144.475 817.621,144.475C818.74,144.475 820.251,144.083 820.923,143.747M830.21,129.982L845.484,129.982C845.429,124.89 843.19,121.42 838.211,121.42C833.511,121.42 830.713,124.61 830.209,129.982M850.633,130.933L850.633,133.898L830.098,133.898C830.266,140.669 833.679,144.306 839.665,144.306C842.575,144.306 845.541,143.747 847.891,142.851L849.289,146.544C846.212,147.887 843.526,148.504 839.441,148.504C830.881,148.504 825.006,143.187 825.006,133.171C825.006,123.323 830.321,117.392 838.267,117.392C845.933,117.392 850.633,122.763 850.633,130.933M882.412,128.415L882.412,147.943L877.544,147.943L877.544,128.751C877.544,123.939 875.418,121.533 870.829,121.533C864.171,121.533 862.045,125.394 862.045,132.388L862.045,147.943L857.121,147.943L857.121,117.952L861.094,117.952L861.82,122.037L862.1,122.037C864.058,118.903 867.752,117.393 871.557,117.393C878.719,117.393 882.412,120.693 882.412,128.415M890.634,107.488L891.753,107.488L893.04,110.958L894.327,107.488L895.446,107.488L895.446,111.909L894.663,111.909L894.663,108.496L894.607,108.496L893.376,111.909L892.704,111.909L891.474,108.496L891.417,108.496L891.417,111.909L890.634,111.909L890.634,107.489L890.634,107.488ZM888.061,108.16L886.774,108.16L886.774,107.488L890.187,107.488L890.187,108.16L888.844,108.16L888.844,111.91L888.061,111.91L888.061,108.16Z" style="fill:rgb(47,85,127);"/>
            <path d="M197.93,87.943L197.93,47.993L220.257,47.993L220.257,52.413L202.967,52.413L202.967,66.569L217.962,66.569L217.962,70.989L202.967,70.989L202.967,87.943L197.93,87.943ZM242.691,57.728L242.076,62.26C241.126,62.037 239.838,61.87 238.831,61.87C234.187,61.87 230.101,65.897 230.101,71.94L230.101,87.943L225.177,87.943L225.177,57.953L229.207,57.953L229.765,63.435L229.99,63.435C231.892,60.133 234.97,57.392 239.166,57.392C240.286,57.392 241.684,57.503 242.691,57.728M249.572,69.982L264.847,69.982C264.792,64.89 262.553,61.42 257.574,61.42C252.874,61.42 250.076,64.61 249.572,69.982M269.996,70.933L269.996,73.898L249.461,73.898C249.629,80.669 253.042,84.306 259.028,84.306C261.938,84.306 264.904,83.747 267.254,82.851L268.652,86.544C265.575,87.887 262.889,88.504 258.804,88.504C250.244,88.504 244.369,83.187 244.369,73.171C244.369,63.323 249.684,57.392 257.63,57.392C265.296,57.392 269.996,62.763 269.996,70.933M276.484,87.943L281.408,87.943L281.408,57.952L276.484,57.952L276.484,87.943ZM281.856,49.839C281.856,51.965 280.513,52.972 279.002,52.972C277.379,52.972 276.092,51.965 276.092,49.839C276.092,47.656 277.379,46.705 279.002,46.705C280.513,46.705 281.856,47.656 281.856,49.839ZM294.667,67.632C294.667,68.807 294.499,71.102 294.443,72.5L294.667,72.5C295.339,71.605 297.241,69.199 298.248,68.08L307.816,57.952L313.58,57.952L301.438,70.766L314.419,87.944L308.489,87.944L298.08,73.954L294.667,76.921L294.667,87.944L289.8,87.944L289.8,47.32L294.667,45.418L294.667,67.632ZM318.558,87.943L323.482,87.943L323.482,57.952L318.558,57.952L318.558,87.943ZM323.929,49.839C323.929,51.965 322.586,52.972 321.075,52.972C319.452,52.972 318.165,51.965 318.165,49.839C318.165,47.656 319.452,46.705 321.075,46.705C322.586,46.705 323.929,47.656 323.929,49.839ZM349.386,57.728L348.771,62.26C347.82,62.037 346.531,61.87 345.526,61.87C340.881,61.87 336.796,65.897 336.796,71.94L336.796,87.943L331.873,87.943L331.873,57.953L335.902,57.953L336.461,63.435L336.685,63.435C338.587,60.133 341.664,57.392 345.862,57.392C346.981,57.392 348.379,57.503 349.386,57.728M351.064,73.115C351.064,62.037 357.05,57.392 365.108,57.392C368.128,57.392 371.263,58.12 373.053,59.015L371.487,63.099C369.696,62.429 367.067,61.701 364.997,61.701C359.009,61.701 356.156,65.561 356.156,73.059C356.156,80.277 359.065,84.25 364.716,84.25C367.234,84.25 369.416,83.69 371.375,82.796L372.885,86.712C371.207,87.775 368.185,88.503 364.772,88.503C356.771,88.503 351.064,83.747 351.064,73.115M383.403,57.896C383.403,59.35 383.291,60.917 383.123,62.092L383.459,62.092C385.361,59.015 388.942,57.448 392.803,57.448C400.077,57.448 403.77,60.75 403.77,68.415L403.77,87.943L398.902,87.943L398.902,68.75C398.902,63.94 396.776,61.533 392.187,61.533C385.473,61.533 383.403,65.45 383.403,72.444L383.403,87.944L378.479,87.944L378.479,47.264L383.403,45.417L383.403,57.897L383.403,57.896ZM415.461,69.982L430.736,69.982C430.68,64.89 428.442,61.42 423.462,61.42C418.762,61.42 415.964,64.61 415.462,69.982M435.884,70.933L435.884,73.898L415.35,73.898C415.518,80.669 418.931,84.306 424.918,84.306C427.828,84.306 430.793,83.747 433.144,82.851L434.542,86.544C431.465,87.887 428.778,88.504 424.694,88.504C416.134,88.504 410.258,83.187 410.258,73.171C410.258,63.323 415.573,57.392 423.519,57.392C431.185,57.392 435.885,62.763 435.885,70.933M476.39,73.955L476.39,73.059C476.39,65.618 474.376,61.477 467.718,61.477C462.403,61.477 459.773,66.01 459.773,73.115C459.773,80.277 462.403,84.418 467.773,84.418C474.097,84.418 476.391,80.949 476.391,73.955M454.681,73.004C454.681,62.708 459.605,57.393 467.046,57.393C471.691,57.393 474.489,59.351 476.334,61.812L476.67,61.812C476.559,60.861 476.334,58.512 476.334,57.393L476.334,47.32L481.259,45.418L481.259,87.943L477.287,87.943L476.559,83.915L476.334,83.915C474.544,86.488 471.691,88.503 466.991,88.503C459.548,88.503 454.681,83.299 454.681,73.004M493.733,69.982L509.009,69.982C508.952,64.89 506.714,61.42 501.735,61.42C497.035,61.42 494.236,64.61 493.733,69.982M514.156,70.933L514.156,73.898L493.622,73.898C493.79,80.669 497.202,84.306 503.19,84.306C506.099,84.306 509.065,83.747 511.416,82.851L512.814,86.544C509.737,87.887 507.05,88.504 502.966,88.504C494.404,88.504 488.529,83.187 488.529,73.171C488.529,63.323 493.844,57.392 501.791,57.392C509.457,57.392 514.156,62.763 514.156,70.933M538.158,57.728L537.543,62.26C536.593,62.037 535.304,61.87 534.297,61.87C529.653,61.87 525.568,65.897 525.568,71.94L525.568,87.943L520.644,87.943L520.644,57.953L524.674,57.953L525.232,63.435L525.457,63.435C527.359,60.133 530.437,57.392 534.633,57.392C535.753,57.392 537.151,57.503 538.158,57.728" style="fill:rgb(47,85,127);"/>
        </g>
    </g>
</svg>
